# xmcd CD database file
#
# Track frame offsets:
#	150
#	14945
#	31707
#	48020
#	65835
#	84407
#	99152
#	115832
#	131070
#	152482
#	164835
#	182365
#	203787
#	218602
#	234912
#	252782
#	271370
#	287695
#	302937
#	315307
#
# Disc length: 4437 seconds
#
# Revision: 0
# Processed by: cddbd v1.5.1PL0 Copyright (c) Steve Scherf et al.
# Submitted via: CDex 1.51
#
DISCID=0b115314
DTITLE=Various Artist - 超新星フラッシュマン COMPLETE SONG COLLECTION
DYEAR=1996
DGENRE=Anime
TTITLE0=北原拓/超新星フラッシュマン
TTITLE1=北原拓/熱いハートのスペクトル
TTITLE2=宮内タカユキ/輝け！フラッシュキング
TTITLE3=中村容子/ボディアクション、ダンスじゃないわよ
TTITLE4=宮内タカユキ、こおろぎ’７３、SHINES/ビートをあわせて今すぐに
TTITLE5=北原拓/フラッシュマン魂
TTITLE6=丸山裕子/ぼくはマグ
TTITLE7=北原拓/フラッシュマンの誓い
TTITLE8=こおろぎ’７３、SHINES、宮内タカユキ/アクション、No.１
TTITLE9=北原拓/ファイティングポーズ、フラッシュマン！
TTITLE10=北原拓、こおろぎ’７３、SHINES/ハートは火花さ、フラッシュマン
TTITLE11=こおろぎ’７３、SHINES、宮内タカユキ/アクション、No.１（ディスコヴァージョン）
TTITLE12=超新星フラッシュマン（オリジナル・カラオケ）
TTITLE13=輝け！フラッシュキング（オリジナル・カラオケ）
TTITLE14=ボディアクション、ダンスじゃないわよ（オリジナル・カラオケ）
TTITLE15=ビートをあわせて今すぐに（オリジナル・カラオケ）
TTITLE16=ぼくはマグ（オリジナル・カラオケ）
TTITLE17=フラッシュマンの誓い（オリジナル・カラオケ）
TTITLE18=ファイティングポーズ、フラッシュマン（オリジナル・カラオケ）
TTITLE19=ハートは火花さ、フラッシュマン（オリジナル・カラオケ）
EXTD=YEAR: 1996
EXTT0=
EXTT1=
EXTT2=
EXTT3=
EXTT4=
EXTT5=
EXTT6=
EXTT7=
EXTT8=
EXTT9=
EXTT10=
EXTT11=
EXTT12=
EXTT13=
EXTT14=
EXTT15=
EXTT16=
EXTT17=
EXTT18=
EXTT19=
PLAYORDER=
